<svg xmlns="http://www.w3.org/2000/svg" xmlns:xlink="http://www.w3.org/1999/xlink" width="200" zoomAndPan="magnify" viewBox="0 0 150 149.999998" height="200" preserveAspectRatio="xMidYMid meet" version="1.0"><defs><g/></defs><g fill="#ffffff" fill-opacity="1"><g transform="translate(-11.905393, 110.490988)"><g><path d="M 20.28125 10.625 L 20.28125 -80.140625 L 43.9375 -80.140625 L 43.9375 -72.421875 L 28.96875 -72.421875 L 28.96875 2.890625 L 43.9375 2.890625 L 43.9375 10.625 Z M 20.28125 10.625 "/></g></g></g><g fill="#ffffff" fill-opacity="1"><g transform="translate(46.030105, 110.490988)"><g><path d="M 24.53125 -7.625 L 24.53125 -61.890625 L 9.171875 -61.890625 L 9.171875 -69.53125 L 48.765625 -69.53125 L 48.765625 -61.890625 L 33.40625 -61.890625 L 33.40625 -7.625 L 48.765625 -7.625 L 48.765625 0 L 9.171875 0 L 9.171875 -7.625 Z M 24.53125 -7.625 "/></g></g></g><g fill="#ffffff" fill-opacity="1"><g transform="translate(103.965604, 110.490988)"><g><path d="M 14.484375 10.625 L 14.484375 2.890625 L 29.453125 2.890625 L 29.453125 -72.421875 L 14.484375 -72.421875 L 14.484375 -80.140625 L 38.140625 -80.140625 L 38.140625 10.625 Z M 14.484375 10.625 "/></g></g></g></svg>